<mxfile host="app.diagrams.net" modified="2024-02-26T07:32:40.360Z" agent="Mozilla/5.0 (Windows NT 10.0; Win64; x64) AppleWebKit/537.36 (KHTML, like Gecko) Chrome/121.0.0.0 Safari/537.36" etag="L5-Xvj-AAQqfhOeaAOsy" version="23.1.5" type="github">
  <diagram name="Side-1" id="nvqG6xlvRgbAp1doAYCp">
    <mxGraphModel dx="1050" dy="1691" grid="1" gridSize="10" guides="1" tooltips="1" connect="1" arrows="1" fold="1" page="1" pageScale="1" pageWidth="827" pageHeight="1169" math="0" shadow="0">
      <root>
        <mxCell id="0" />
        <mxCell id="1" parent="0" />
        <mxCell id="YwC2WnXES91Jem1FO_UY-1" value="KUNDER" style="rounded=0;whiteSpace=wrap;html=1;" parent="1" vertex="1">
          <mxGeometry width="120" height="60" as="geometry" />
        </mxCell>
        <mxCell id="YwC2WnXES91Jem1FO_UY-3" value="" style="shape=singleArrow;whiteSpace=wrap;html=1;" parent="1" vertex="1">
          <mxGeometry x="130" y="10" width="70" height="40" as="geometry" />
        </mxCell>
        <mxCell id="YwC2WnXES91Jem1FO_UY-4" value="Table" style="shape=table;startSize=30;container=1;collapsible=1;childLayout=tableLayout;fixedRows=1;rowLines=0;fontStyle=1;align=center;resizeLast=1;html=1;" parent="1" vertex="1">
          <mxGeometry x="230" width="110" height="240" as="geometry" />
        </mxCell>
        <mxCell id="YwC2WnXES91Jem1FO_UY-5" value="" style="shape=tableRow;horizontal=0;startSize=0;swimlaneHead=0;swimlaneBody=0;fillColor=none;collapsible=0;dropTarget=0;points=[[0,0.5],[1,0.5]];portConstraint=eastwest;top=0;left=0;right=0;bottom=1;" parent="YwC2WnXES91Jem1FO_UY-4" vertex="1">
          <mxGeometry y="30" width="110" height="30" as="geometry" />
        </mxCell>
        <mxCell id="YwC2WnXES91Jem1FO_UY-6" value="PK" style="shape=partialRectangle;connectable=0;fillColor=none;top=0;left=0;bottom=0;right=0;fontStyle=1;overflow=hidden;whiteSpace=wrap;html=1;" parent="YwC2WnXES91Jem1FO_UY-5" vertex="1">
          <mxGeometry width="30" height="30" as="geometry">
            <mxRectangle width="30" height="30" as="alternateBounds" />
          </mxGeometry>
        </mxCell>
        <mxCell id="YwC2WnXES91Jem1FO_UY-7" value="Kunder" style="shape=partialRectangle;connectable=0;fillColor=none;top=0;left=0;bottom=0;right=0;align=left;spacingLeft=6;fontStyle=5;overflow=hidden;whiteSpace=wrap;html=1;" parent="YwC2WnXES91Jem1FO_UY-5" vertex="1">
          <mxGeometry x="30" width="80" height="30" as="geometry">
            <mxRectangle width="80" height="30" as="alternateBounds" />
          </mxGeometry>
        </mxCell>
        <mxCell id="YwC2WnXES91Jem1FO_UY-8" value="" style="shape=tableRow;horizontal=0;startSize=0;swimlaneHead=0;swimlaneBody=0;fillColor=none;collapsible=0;dropTarget=0;points=[[0,0.5],[1,0.5]];portConstraint=eastwest;top=0;left=0;right=0;bottom=0;" parent="YwC2WnXES91Jem1FO_UY-4" vertex="1">
          <mxGeometry y="60" width="110" height="30" as="geometry" />
        </mxCell>
        <mxCell id="YwC2WnXES91Jem1FO_UY-9" value="" style="shape=partialRectangle;connectable=0;fillColor=none;top=0;left=0;bottom=0;right=0;editable=1;overflow=hidden;whiteSpace=wrap;html=1;" parent="YwC2WnXES91Jem1FO_UY-8" vertex="1">
          <mxGeometry width="30" height="30" as="geometry">
            <mxRectangle width="30" height="30" as="alternateBounds" />
          </mxGeometry>
        </mxCell>
        <mxCell id="YwC2WnXES91Jem1FO_UY-10" value="kunde_id" style="shape=partialRectangle;connectable=0;fillColor=none;top=0;left=0;bottom=0;right=0;align=left;spacingLeft=6;overflow=hidden;whiteSpace=wrap;html=1;" parent="YwC2WnXES91Jem1FO_UY-8" vertex="1">
          <mxGeometry x="30" width="80" height="30" as="geometry">
            <mxRectangle width="80" height="30" as="alternateBounds" />
          </mxGeometry>
        </mxCell>
        <mxCell id="YwC2WnXES91Jem1FO_UY-11" value="" style="shape=tableRow;horizontal=0;startSize=0;swimlaneHead=0;swimlaneBody=0;fillColor=none;collapsible=0;dropTarget=0;points=[[0,0.5],[1,0.5]];portConstraint=eastwest;top=0;left=0;right=0;bottom=0;" parent="YwC2WnXES91Jem1FO_UY-4" vertex="1">
          <mxGeometry y="90" width="110" height="30" as="geometry" />
        </mxCell>
        <mxCell id="YwC2WnXES91Jem1FO_UY-12" value="" style="shape=partialRectangle;connectable=0;fillColor=none;top=0;left=0;bottom=0;right=0;editable=1;overflow=hidden;whiteSpace=wrap;html=1;" parent="YwC2WnXES91Jem1FO_UY-11" vertex="1">
          <mxGeometry width="30" height="30" as="geometry">
            <mxRectangle width="30" height="30" as="alternateBounds" />
          </mxGeometry>
        </mxCell>
        <mxCell id="YwC2WnXES91Jem1FO_UY-13" value="navn" style="shape=partialRectangle;connectable=0;fillColor=none;top=0;left=0;bottom=0;right=0;align=left;spacingLeft=6;overflow=hidden;whiteSpace=wrap;html=1;" parent="YwC2WnXES91Jem1FO_UY-11" vertex="1">
          <mxGeometry x="30" width="80" height="30" as="geometry">
            <mxRectangle width="80" height="30" as="alternateBounds" />
          </mxGeometry>
        </mxCell>
        <mxCell id="YwC2WnXES91Jem1FO_UY-14" value="" style="shape=tableRow;horizontal=0;startSize=0;swimlaneHead=0;swimlaneBody=0;fillColor=none;collapsible=0;dropTarget=0;points=[[0,0.5],[1,0.5]];portConstraint=eastwest;top=0;left=0;right=0;bottom=0;" parent="YwC2WnXES91Jem1FO_UY-4" vertex="1">
          <mxGeometry y="120" width="110" height="40" as="geometry" />
        </mxCell>
        <mxCell id="YwC2WnXES91Jem1FO_UY-15" value="" style="shape=partialRectangle;connectable=0;fillColor=none;top=0;left=0;bottom=0;right=0;editable=1;overflow=hidden;whiteSpace=wrap;html=1;" parent="YwC2WnXES91Jem1FO_UY-14" vertex="1">
          <mxGeometry width="30" height="40" as="geometry">
            <mxRectangle width="30" height="40" as="alternateBounds" />
          </mxGeometry>
        </mxCell>
        <mxCell id="YwC2WnXES91Jem1FO_UY-16" value="email" style="shape=partialRectangle;connectable=0;fillColor=none;top=0;left=0;bottom=0;right=0;align=left;spacingLeft=6;overflow=hidden;whiteSpace=wrap;html=1;" parent="YwC2WnXES91Jem1FO_UY-14" vertex="1">
          <mxGeometry x="30" width="80" height="40" as="geometry">
            <mxRectangle width="80" height="40" as="alternateBounds" />
          </mxGeometry>
        </mxCell>
        <mxCell id="YwC2WnXES91Jem1FO_UY-38" style="shape=tableRow;horizontal=0;startSize=0;swimlaneHead=0;swimlaneBody=0;fillColor=none;collapsible=0;dropTarget=0;points=[[0,0.5],[1,0.5]];portConstraint=eastwest;top=0;left=0;right=0;bottom=0;" parent="YwC2WnXES91Jem1FO_UY-4" vertex="1">
          <mxGeometry y="160" width="110" height="40" as="geometry" />
        </mxCell>
        <mxCell id="YwC2WnXES91Jem1FO_UY-39" style="shape=partialRectangle;connectable=0;fillColor=none;top=0;left=0;bottom=0;right=0;editable=1;overflow=hidden;whiteSpace=wrap;html=1;" parent="YwC2WnXES91Jem1FO_UY-38" vertex="1">
          <mxGeometry width="30" height="40" as="geometry">
            <mxRectangle width="30" height="40" as="alternateBounds" />
          </mxGeometry>
        </mxCell>
        <mxCell id="YwC2WnXES91Jem1FO_UY-40" value="tlf" style="shape=partialRectangle;connectable=0;fillColor=none;top=0;left=0;bottom=0;right=0;align=left;spacingLeft=6;overflow=hidden;whiteSpace=wrap;html=1;" parent="YwC2WnXES91Jem1FO_UY-38" vertex="1">
          <mxGeometry x="30" width="80" height="40" as="geometry">
            <mxRectangle width="80" height="40" as="alternateBounds" />
          </mxGeometry>
        </mxCell>
        <mxCell id="qMUSmI0Cxe-QdXUALBQz-1" style="shape=tableRow;horizontal=0;startSize=0;swimlaneHead=0;swimlaneBody=0;fillColor=none;collapsible=0;dropTarget=0;points=[[0,0.5],[1,0.5]];portConstraint=eastwest;top=0;left=0;right=0;bottom=0;" vertex="1" parent="YwC2WnXES91Jem1FO_UY-4">
          <mxGeometry y="200" width="110" height="40" as="geometry" />
        </mxCell>
        <mxCell id="qMUSmI0Cxe-QdXUALBQz-2" style="shape=partialRectangle;connectable=0;fillColor=none;top=0;left=0;bottom=0;right=0;editable=1;overflow=hidden;whiteSpace=wrap;html=1;" vertex="1" parent="qMUSmI0Cxe-QdXUALBQz-1">
          <mxGeometry width="30" height="40" as="geometry">
            <mxRectangle width="30" height="40" as="alternateBounds" />
          </mxGeometry>
        </mxCell>
        <mxCell id="qMUSmI0Cxe-QdXUALBQz-3" value="bilmærke" style="shape=partialRectangle;connectable=0;fillColor=none;top=0;left=0;bottom=0;right=0;align=left;spacingLeft=6;overflow=hidden;whiteSpace=wrap;html=1;" vertex="1" parent="qMUSmI0Cxe-QdXUALBQz-1">
          <mxGeometry x="30" width="80" height="40" as="geometry">
            <mxRectangle width="80" height="40" as="alternateBounds" />
          </mxGeometry>
        </mxCell>
        <mxCell id="qMUSmI0Cxe-QdXUALBQz-4" value="Entitet" style="rounded=0;whiteSpace=wrap;html=1;" vertex="1" parent="1">
          <mxGeometry width="350" height="240" as="geometry" />
        </mxCell>
        <mxCell id="qMUSmI0Cxe-QdXUALBQz-6" value="Relation" style="rhombus;whiteSpace=wrap;html=1;" vertex="1" parent="1">
          <mxGeometry x="370" y="-20" width="260" height="260" as="geometry" />
        </mxCell>
        <mxCell id="qMUSmI0Cxe-QdXUALBQz-7" value="Kunde ID" style="rounded=0;whiteSpace=wrap;html=1;strokeWidth=2;" vertex="1" parent="1">
          <mxGeometry x="120" y="390" width="120" height="60" as="geometry" />
        </mxCell>
        <mxCell id="qMUSmI0Cxe-QdXUALBQz-23" value="" style="edgeStyle=orthogonalEdgeStyle;rounded=0;orthogonalLoop=1;jettySize=auto;html=1;strokeWidth=2;" edge="1" parent="1" source="qMUSmI0Cxe-QdXUALBQz-8" target="qMUSmI0Cxe-QdXUALBQz-22">
          <mxGeometry relative="1" as="geometry" />
        </mxCell>
        <mxCell id="qMUSmI0Cxe-QdXUALBQz-8" value="Bilmærke" style="rounded=0;whiteSpace=wrap;html=1;strokeWidth=2;" vertex="1" parent="1">
          <mxGeometry x="406" y="390" width="120" height="60" as="geometry" />
        </mxCell>
        <mxCell id="qMUSmI0Cxe-QdXUALBQz-17" value="1" style="text;html=1;align=center;verticalAlign=middle;whiteSpace=wrap;rounded=0;strokeWidth=2;" vertex="1" parent="1">
          <mxGeometry x="180" y="450" width="60" height="30" as="geometry" />
        </mxCell>
        <mxCell id="qMUSmI0Cxe-QdXUALBQz-18" value="1" style="text;html=1;align=center;verticalAlign=middle;whiteSpace=wrap;rounded=0;strokeWidth=2;" vertex="1" parent="1">
          <mxGeometry x="478" y="450" width="60" height="30" as="geometry" />
        </mxCell>
        <mxCell id="qMUSmI0Cxe-QdXUALBQz-19" value="Ejerskab" style="rounded=0;whiteSpace=wrap;html=1;strokeWidth=2;" vertex="1" parent="1">
          <mxGeometry x="268" y="520" width="120" height="60" as="geometry" />
        </mxCell>
        <mxCell id="qMUSmI0Cxe-QdXUALBQz-25" value="" style="edgeStyle=orthogonalEdgeStyle;rounded=0;orthogonalLoop=1;jettySize=auto;html=1;strokeWidth=2;" edge="1" parent="1" source="qMUSmI0Cxe-QdXUALBQz-21" target="qMUSmI0Cxe-QdXUALBQz-19">
          <mxGeometry relative="1" as="geometry" />
        </mxCell>
        <mxCell id="qMUSmI0Cxe-QdXUALBQz-26" value="" style="edgeStyle=orthogonalEdgeStyle;rounded=0;orthogonalLoop=1;jettySize=auto;html=1;strokeWidth=2;" edge="1" parent="1" source="qMUSmI0Cxe-QdXUALBQz-21" target="qMUSmI0Cxe-QdXUALBQz-7">
          <mxGeometry relative="1" as="geometry" />
        </mxCell>
        <mxCell id="qMUSmI0Cxe-QdXUALBQz-21" value="har" style="rhombus;whiteSpace=wrap;html=1;strokeWidth=2;" vertex="1" parent="1">
          <mxGeometry x="140" y="480" width="80" height="80" as="geometry" />
        </mxCell>
        <mxCell id="qMUSmI0Cxe-QdXUALBQz-24" value="" style="edgeStyle=orthogonalEdgeStyle;rounded=0;orthogonalLoop=1;jettySize=auto;html=1;strokeWidth=2;" edge="1" parent="1" source="qMUSmI0Cxe-QdXUALBQz-22" target="qMUSmI0Cxe-QdXUALBQz-19">
          <mxGeometry relative="1" as="geometry" />
        </mxCell>
        <mxCell id="qMUSmI0Cxe-QdXUALBQz-22" value="er i" style="rhombus;whiteSpace=wrap;html=1;strokeWidth=2;" vertex="1" parent="1">
          <mxGeometry x="426" y="480" width="80" height="80" as="geometry" />
        </mxCell>
        <mxCell id="qMUSmI0Cxe-QdXUALBQz-27" value="m" style="text;html=1;align=center;verticalAlign=middle;whiteSpace=wrap;rounded=0;strokeWidth=2;" vertex="1" parent="1">
          <mxGeometry x="220" y="550" width="60" height="30" as="geometry" />
        </mxCell>
        <mxCell id="qMUSmI0Cxe-QdXUALBQz-28" value="m" style="text;html=1;align=center;verticalAlign=middle;whiteSpace=wrap;rounded=0;strokeWidth=2;" vertex="1" parent="1">
          <mxGeometry x="378" y="550" width="62" height="30" as="geometry" />
        </mxCell>
      </root>
    </mxGraphModel>
  </diagram>
</mxfile>
